<?xml version="1.0" standalone="no"?>
<!DOCTYPE svg PUBLIC "-//W3C//DTD SVG 20010904//EN"
 "http://www.w3.org/TR/2001/REC-SVG-20010904/DTD/svg10.dtd">
<svg version="1.0" xmlns="http://www.w3.org/2000/svg"
 width="400.000000pt" height="353.000000pt" viewBox="0 0 400.000000 353.000000"
 preserveAspectRatio="xMidYMid meet">

<g transform="translate(0.000000,353.000000) scale(0.100000,-0.100000)"
fill="#000000" stroke="none">
<path d="M100 1745 l0 -1635 1790 0 1790 0 0 695 0 695 85 0 85 0 -1 263 c-1
196 -4 243 -10 187 -43 -393 -333 -754 -788 -980 -179 -89 -425 -171 -585
-195 -26 -4 -49 -11 -52 -16 -8 -13 61 -209 110 -314 56 -119 105 -195 175
-268 l56 -60 -62 6 c-121 13 -269 81 -422 195 -86 64 -270 245 -349 343 l-54
67 -81 6 c-803 67 -1445 466 -1626 1011 -121 364 -24 734 274 1044 280 292
693 485 1190 558 169 24 546 24 705 0 290 -45 490 -106 725 -223 460 -228 742
-580 785 -979 5 -48 8 14 9 193 l1 262 -85 0 -85 0 0 390 0 390 -1790 0 -1790
0 0 -1635z"/>
<path d="M1725 3219 c-557 -54 -1062 -300 -1317 -643 -215 -289 -242 -635 -72
-932 60 -106 111 -170 218 -271 167 -160 386 -285 654 -373 208 -68 493 -120
662 -120 l48 0 35 -74 c86 -182 199 -296 515 -525 61 -45 112 -78 112 -75 0 4
-21 39 -47 78 -68 103 -148 260 -173 341 -17 55 -53 267 -46 271 0 0 66 13
145 28 379 71 723 234 949 450 222 213 323 423 325 676 1 190 -57 359 -181
526 -338 454 -1078 715 -1827 643z"/>
</g>
</svg>
